<?xml version="1.0" encoding="iso-8859-1"?>
<!-- Generator: Adobe Illustrator 16.0.0, SVG Export Plug-In . SVG Version: 6.00 Build 0)  -->
<!DOCTYPE svg PUBLIC "-//W3C//DTD SVG 1.1//EN" "http://www.w3.org/Graphics/SVG/1.1/DTD/svg11.dtd">
<svg width="24" height="22" viewBox="0 0 24 22" fill="none" xmlns="http://www.w3.org/2000/svg"
                        alt="account-icon" class="icon-circle__img">
                        <g clip-path="url(#clip0)">
                            <path
                                d="M9.76074 20.35C9.76074 20.9946 9.25114 21.5 8.64355 21.5C8.03597 21.5 7.52637 20.9946 7.52637 20.35C7.52637 19.7053 8.03597 19.2 8.64355 19.2C9.25114 19.2 9.76074 19.7053 9.76074 20.35Z"
                                fill="#BDBDBD" stroke="white" />
                            <path
                                d="M19.5859 20.35C19.5859 20.9946 19.0763 21.5 18.4688 21.5C17.8612 21.5 17.3516 20.9946 17.3516 20.35C17.3516 19.7053 17.8612 19.2 18.4688 19.2C19.0763 19.2 19.5859 19.7053 19.5859 20.35Z"
                                fill="#BDBDBD" stroke="white" />
                            <path
                                d="M22.447 2.78255L22.4554 2.79256C22.4778 2.81927 22.4945 2.85158 22.5036 2.88723C22.5123 2.92167 22.5135 2.95778 22.5071 2.99281L20.2301 13.2529L20.23 13.2535C20.2179 13.3084 20.1879 13.3552 20.1477 13.3872C20.1078 13.419 20.0598 13.4346 20.0119 13.4334L20.0119 13.4333H19.9995H8.90198H8.71873L8.57888 13.5517L6.8467 15.0184L6.77704 15.0773L6.73272 15.1571C6.65061 15.3049 6.6076 15.4711 6.60717 15.6397C6.60675 15.8083 6.64891 15.9747 6.73025 16.1229C6.81162 16.2711 6.92975 16.3967 7.07419 16.4865C7.2187 16.5763 7.38427 16.627 7.55488 16.633L7.56358 16.6333H7.57229H19.6832C19.738 16.6333 19.7925 16.6554 19.8344 16.698C19.8765 16.7411 19.902 16.8015 19.902 16.8666C19.902 16.9317 19.8765 16.9921 19.8344 17.0352C19.7925 17.0779 19.738 17.0999 19.6832 17.0999H7.68729H7.67468L7.66208 17.1006C7.43365 17.1121 7.20544 17.069 6.99555 16.9742L6.78982 17.4299L6.99555 16.9742C6.78716 16.8801 6.6021 16.7375 6.45547 16.5569C6.25273 16.2925 6.14512 15.963 6.15295 15.6246C6.16069 15.29 6.28073 14.9698 6.49078 14.7171L6.55334 14.6532L7.71277 13.6867L7.969 13.4731L7.87015 13.1544L4.57109 2.52111L4.4933 2.27038L4.24273 2.19205L1.66281 1.38551C1.66276 1.38549 1.66271 1.38548 1.66266 1.38546C1.60868 1.36849 1.56041 1.32933 1.53116 1.27299C1.50171 1.21629 1.49522 1.14887 1.51402 1.08647C1.53275 1.02428 1.57396 0.975307 1.62508 0.947671C1.65038 0.93399 1.67762 0.92576 1.70526 0.923085C1.73289 0.920411 1.76086 0.923292 1.7877 0.931705C1.7877 0.931706 1.78771 0.931707 1.78771 0.931709L4.73457 1.85571L4.73552 1.856C4.76803 1.86612 4.79863 1.88441 4.82431 1.91022C4.84982 1.93585 4.86969 1.96815 4.88141 2.00478C4.88152 2.00509 4.88162 2.00541 4.88172 2.00573L8.16559 12.6145L8.2746 12.9666H8.64323H19.4245H19.8272L19.913 12.5731L21.8321 3.77314L21.9643 3.16661H21.3435H8.1534L8.00475 2.69994H22.2829C22.3132 2.70032 22.3434 2.70744 22.3715 2.72122L22.5917 2.27228L22.3715 2.72123C22.4001 2.7352 22.426 2.75587 22.4472 2.78244L22.447 2.78255Z"
                                fill="#BDBDBD" stroke="white" />
                        </g>
                        <defs>
                            <clipPath id="clip0">
                                <rect width="23" height="22" fill="white" transform="translate(0.5)" />
                            </clipPath>
                        </defs>
                    </svg>

