<?xml version="1.0" encoding="utf-8"?>
<svg viewBox="9.084 6.68 433 137.42" width="433" height="137.42" xmlns="http://www.w3.org/2000/svg" xmlns:bx="https://boxy-svg.com">
  <defs>
    <style type="text/css">
	.st0{display:none;}
	.st1{display:inline;fill:none;stroke:#000000;stroke-miterlimit:10;}
	.st2{display:inline;stroke:#000000;stroke-miterlimit:10;}
	.st3{fill:url(#SVGID_1_);}
	.st4{fill:url(#SVGID_2_);}
	.st5{fill:url(#SVGID_3_);}
	.st6{fill:url(#SVGID_4_);}
	.st7{fill:url(#SVGID_5_);}
	.st8{fill:url(#SVGID_6_);}
	.st9{fill:url(#SVGID_7_);}
	.st10{fill:url(#SVGID_8_);}
	.st11{fill:url(#SVGID_9_);}
	.st12{fill:url(#SVGID_10_);}
	.st13{fill:#FFFFFF;stroke:#000000;stroke-width:0.75;stroke-miterlimit:10;}
	.st14{fill:url(#SVGID_11_);}
	.st15{fill:url(#SVGID_12_);}
	.st16{fill:none;stroke:#000000;stroke-width:3;stroke-miterlimit:10;}
</style>
  </defs>
  <g id="Layer_2" transform="matrix(0.999746, 0, 0, 1, -12.080177, -4.610261)" bx:origin="0.450232 0.5">
    <g>
      <linearGradient id="SVGID_1_" gradientUnits="userSpaceOnUse" x1="123.9493" y1="43.0422" x2="152.1234" y2="23.3145">
        <stop offset="0" style="stop-color:#DFC06B"/>
        <stop offset="0.1308" style="stop-color:#E0C371;stop-opacity:0.9346"/>
        <stop offset="0.308" style="stop-color:#E4CA82;stop-opacity:0.846"/>
        <stop offset="0.5116" style="stop-color:#EAD69F;stop-opacity:0.7442"/>
        <stop offset="0.735" style="stop-color:#F3E7C6;stop-opacity:0.6325"/>
        <stop offset="0.9721" style="stop-color:#FEFCF9;stop-opacity:0.514"/>
        <stop offset="1" style="stop-color:#FFFFFF;stop-opacity:0.5"/>
      </linearGradient>
      <path class="st3" d="M124.33,30.86c0,0-0.92-15.14,23.19-14.12c0,0-10.5,6.35-4.76,14.95c5.63,8.45-3.17,20.63-10.44,23.3"/>
      <linearGradient id="SVGID_2_" gradientUnits="userSpaceOnUse" x1="124.4582" y1="41.5523" x2="153.9418" y2="24.5299">
        <stop offset="0" style="stop-color:#947400"/>
        <stop offset="0.0722" style="stop-color:#A38312;stop-opacity:0.9998"/>
        <stop offset="0.2235" style="stop-color:#BD9F33;stop-opacity:0.9994"/>
        <stop offset="0.369" style="stop-color:#D1B34A;stop-opacity:0.9991"/>
        <stop offset="0.5049" style="stop-color:#DCBF58;stop-opacity:0.9987"/>
        <stop offset="0.6217" style="stop-color:#E0C35D;stop-opacity:0.9985"/>
        <stop offset="0.681" style="stop-color:#E3C867;stop-opacity:0.9204"/>
        <stop offset="0.7824" style="stop-color:#EAD783;stop-opacity:0.7866"/>
        <stop offset="0.9129" style="stop-color:#F6EEAF;stop-opacity:0.6147"/>
        <stop offset="1" style="stop-color:#FFFFD0;stop-opacity:0.5"/>
      </linearGradient>
      <path class="st4" d="M124.33,30.86c-0.1-2.55,0.75-5.11,2.19-7.24c1.44-2.16,3.6-3.77,5.93-4.86c1.14-0.63,2.4-0.95,3.62-1.37 c0.62-0.19,1.26-0.28,1.89-0.42c0.63-0.12,1.26-0.29,1.9-0.35c1.28-0.1,2.56-0.27,3.84-0.32l3.85-0.01l1.53,0l-1.31,0.86 c-1.54,1.01-2.98,2.32-4.1,3.8c-1.12,1.48-1.97,3.19-2.09,5.01c-0.13,1.81,0.38,3.65,1.41,5.21l0.71,1.3l0.36,0.66l0.24,0.71 c0.38,0.94,0.51,1.94,0.65,2.93c0.21,4.04-1.4,7.87-3.66,11.02c-1.11,1.61-2.49,3.02-3.97,4.27c-1.49,1.24-3.15,2.32-4.99,2.94 c1.79-0.74,3.37-1.89,4.78-3.17c1.41-1.3,2.67-2.75,3.72-4.35c2.13-3.14,3.52-6.9,3.26-10.64c-0.14-0.92-0.26-1.84-0.62-2.7 l-0.23-0.65l-0.34-0.61l-0.69-1.24c-1.12-1.65-1.74-3.72-1.61-5.76c0.12-2.06,1.05-3.97,2.28-5.53c1.23-1.58,2.71-2.9,4.4-3.99 l0.22,0.86l-3.78-0.03c-1.26,0.03-2.51,0.19-3.76,0.27c-1.24,0.19-2.48,0.4-3.7,0.67c-1.19,0.38-2.43,0.65-3.54,1.22 c-2.29,0.99-4.38,2.49-5.88,4.5C125.34,25.85,124.41,28.32,124.33,30.86z"/>
    </g>
    <g>
      <linearGradient id="SVGID_3_" gradientUnits="userSpaceOnUse" x1="137.9121" y1="64.4387" x2="179.5963" y2="40.3723">
        <stop offset="0" style="stop-color:#DFC06B"/>
        <stop offset="0.2016" style="stop-color:#E0C16E;stop-opacity:0.8992"/>
        <stop offset="0.3651" style="stop-color:#E2C678;stop-opacity:0.8175"/>
        <stop offset="0.5151" style="stop-color:#E6CD89;stop-opacity:0.7424"/>
        <stop offset="0.6573" style="stop-color:#EBD7A1;stop-opacity:0.6714"/>
        <stop offset="0.7937" style="stop-color:#F1E4C0;stop-opacity:0.6031"/>
        <stop offset="0.9242" style="stop-color:#FAF4E6;stop-opacity:0.5379"/>
        <stop offset="1" style="stop-color:#FFFFFF;stop-opacity:0.5"/>
      </linearGradient>
      <path class="st5" d="M133.59,56.94c0,0,10.29-8.46,17.35-16.99c7.42-8.96,25.52-0.08,32.19,6.54c0,0-14.38-3.54-16.6,11.5 c-2.24,15.18-20.45,16.3-20.45,16.3"/>
      <linearGradient id="SVGID_4_" gradientUnits="userSpaceOnUse" x1="137.8015" y1="64.4108" x2="180.3864" y2="39.8244">
        <stop offset="0" style="stop-color:#947400"/>
        <stop offset="0.0845" style="stop-color:#A38312;stop-opacity:0.9998"/>
        <stop offset="0.2615" style="stop-color:#BD9F33;stop-opacity:0.9994"/>
        <stop offset="0.4318" style="stop-color:#D1B34A;stop-opacity:0.9991"/>
        <stop offset="0.5909" style="stop-color:#DCBF58;stop-opacity:0.9987"/>
        <stop offset="0.7275" style="stop-color:#E0C35D;stop-opacity:0.9985"/>
        <stop offset="0.7702" style="stop-color:#E3C867;stop-opacity:0.9204"/>
        <stop offset="0.8433" style="stop-color:#EAD783;stop-opacity:0.7866"/>
        <stop offset="0.9373" style="stop-color:#F6EEAF;stop-opacity:0.6147"/>
        <stop offset="1" style="stop-color:#FFFFD0;stop-opacity:0.5"/>
      </linearGradient>
      <path class="st6" d="M133.59,56.94c3.78-3.32,7.45-6.76,10.93-10.37c1.75-1.8,3.45-3.64,5.07-5.55c0.8-0.93,1.56-1.99,2.6-2.81 c1.02-0.82,2.19-1.43,3.43-1.83c2.49-0.81,5.14-0.76,7.66-0.39c2.53,0.39,4.98,1.14,7.34,2.08c2.36,0.95,4.63,2.11,6.79,3.43 c2.16,1.33,4.24,2.83,6.06,4.64l1.16,1.15l-1.62-0.33c-3.99-0.81-8.6-0.33-11.76,2.37c-0.78,0.66-1.46,1.45-2.04,2.3 c-0.57,0.86-1.01,1.81-1.38,2.78c-0.33,0.99-0.64,1.99-0.81,3.03c-0.19,1.03-0.39,2.14-0.71,3.17c-0.63,2.09-1.69,4.06-3.06,5.75 c-1.38,1.69-3.08,3.1-4.94,4.21c-1.87,1.1-3.87,1.94-5.93,2.55c-2.06,0.61-4.18,1.03-6.32,1.16c4.24-0.53,8.42-1.84,12.01-4.11 c0.89-0.58,1.74-1.21,2.54-1.9c0.78-0.71,1.52-1.46,2.17-2.29c1.29-1.66,2.26-3.56,2.83-5.58c0.29-1.02,0.44-2.02,0.63-3.11 c0.16-1.08,0.45-2.14,0.79-3.18c0.39-1.03,0.85-2.04,1.45-2.97c0.61-0.93,1.34-1.78,2.19-2.51c1.69-1.47,3.82-2.36,5.99-2.74 c2.18-0.38,4.39-0.34,6.58,0.1l-0.46,0.82c-3.58-3.38-7.94-6-12.52-7.91c-2.3-0.94-4.68-1.68-7.12-2.07 c-2.43-0.38-4.95-0.4-7.28,0.3c-1.16,0.35-2.26,0.9-3.22,1.64c-0.96,0.72-1.71,1.72-2.56,2.67c-1.67,1.89-3.42,3.71-5.21,5.48 C141.27,50.45,137.51,53.81,133.59,56.94z"/>
    </g>
    <g>
      <linearGradient id="SVGID_5_" gradientUnits="userSpaceOnUse" x1="145.4084" y1="95.6983" x2="181.2439" y2="75.0086">
        <stop offset="0" style="stop-color:#DFC06B"/>
        <stop offset="0.2016" style="stop-color:#E0C16E;stop-opacity:0.8992"/>
        <stop offset="0.3651" style="stop-color:#E2C678;stop-opacity:0.8175"/>
        <stop offset="0.5151" style="stop-color:#E6CD89;stop-opacity:0.7424"/>
        <stop offset="0.6573" style="stop-color:#EBD7A1;stop-opacity:0.6714"/>
        <stop offset="0.7937" style="stop-color:#F1E4C0;stop-opacity:0.6031"/>
        <stop offset="0.9242" style="stop-color:#FAF4E6;stop-opacity:0.5379"/>
        <stop offset="1" style="stop-color:#FFFFFF;stop-opacity:0.5"/>
      </linearGradient>
      <path class="st7" d="M143.97,93.2l-5.09-18.9c0,0,13.93,6.43,24.59-0.99c10.66-7.42,25.44,7.86,26.47,21.86 c0,0-3.93-11.54-25.34,1.38C164.59,96.54,155.42,103.22,143.97,93.2"/>
      <linearGradient id="SVGID_6_" gradientUnits="userSpaceOnUse" x1="145.6191" y1="97.0296" x2="182.3061" y2="75.8484">
        <stop offset="0" style="stop-color:#947400"/>
        <stop offset="0.0845" style="stop-color:#A38312;stop-opacity:0.9998"/>
        <stop offset="0.2615" style="stop-color:#BD9F33;stop-opacity:0.9994"/>
        <stop offset="0.4318" style="stop-color:#D1B34A;stop-opacity:0.9991"/>
        <stop offset="0.5909" style="stop-color:#DCBF58;stop-opacity:0.9987"/>
        <stop offset="0.7275" style="stop-color:#E0C35D;stop-opacity:0.9985"/>
        <stop offset="0.7702" style="stop-color:#E3C867;stop-opacity:0.9204"/>
        <stop offset="0.8433" style="stop-color:#EAD783;stop-opacity:0.7866"/>
        <stop offset="0.9373" style="stop-color:#F6EEAF;stop-opacity:0.6147"/>
        <stop offset="1" style="stop-color:#FFFFD0;stop-opacity:0.5"/>
      </linearGradient>
      <path class="st8" d="M143.97,93.2l-5.27-18.86L138.6,74l0.34,0.13c5.05,1.98,10.64,2.95,16,2.12c2.67-0.42,5.24-1.38,7.52-2.8 c0.56-0.35,1.12-0.77,1.75-1.12c0.62-0.35,1.28-0.64,1.96-0.86c1.36-0.45,2.81-0.61,4.24-0.51c2.86,0.22,5.53,1.42,7.83,3.01 c2.31,1.6,4.31,3.6,6.01,5.81c3.37,4.43,5.69,9.75,6.14,15.36l0.24,2.99l-1.13-2.81c-0.39-0.96-1.13-1.9-1.99-2.59 c-0.86-0.71-1.91-1.19-3-1.5c-2.2-0.6-4.57-0.4-6.85,0.05c-4.57,1-8.85,3.14-12.92,5.51l0.02-0.01c-1.64,1.06-3.47,1.67-5.35,1.98 c-1.88,0.29-3.81,0.21-5.66-0.19c-1.85-0.41-3.62-1.12-5.25-2.05C146.86,95.6,145.35,94.46,143.97,93.2 c1.43,1.21,2.98,2.28,4.62,3.15c1.64,0.88,3.41,1.53,5.23,1.88c1.82,0.33,3.7,0.37,5.51,0.03c1.8-0.32,3.6-0.97,5.08-1.97 l0.02-0.01l0,0c4.06-2.46,8.35-4.69,13.05-5.81c2.35-0.5,4.84-0.73,7.25-0.09c2.39,0.63,4.62,2.2,5.63,4.64l-0.89,0.18 c-0.44-5.38-2.75-10.53-6.01-14.82c-1.64-2.15-3.56-4.09-5.76-5.64c-2.19-1.54-4.71-2.68-7.36-2.89c-1.32-0.1-2.65,0.04-3.9,0.45 c-0.63,0.2-1.23,0.47-1.81,0.79c-0.57,0.31-1.11,0.71-1.72,1.09c-2.39,1.49-5.1,2.4-7.86,2.79c-2.77,0.39-5.58,0.28-8.31-0.16 c-2.74-0.45-5.41-1.21-7.95-2.35l0.25-0.21L143.97,93.2z"/>
    </g>
    <g>
      <linearGradient id="SVGID_7_" gradientUnits="userSpaceOnUse" x1="125.5838" y1="105.9417" x2="163.1734" y2="127.6441">
        <stop offset="0" style="stop-color:#DFC06B"/>
        <stop offset="0.2016" style="stop-color:#E0C16E;stop-opacity:0.8992"/>
        <stop offset="0.3651" style="stop-color:#E2C678;stop-opacity:0.8175"/>
        <stop offset="0.5151" style="stop-color:#E6CD89;stop-opacity:0.7424"/>
        <stop offset="0.6573" style="stop-color:#EBD7A1;stop-opacity:0.6714"/>
        <stop offset="0.7937" style="stop-color:#F1E4C0;stop-opacity:0.6031"/>
        <stop offset="0.9242" style="stop-color:#FAF4E6;stop-opacity:0.5379"/>
        <stop offset="1" style="stop-color:#FFFFFF;stop-opacity:0.5"/>
      </linearGradient>
      <path class="st9" d="M146.12,99.87c0,0,10.73,5.48,15.92,13.3c5.19,7.81-0.68,17.18-6.65,27.95c0,0,2.98-13.56-17.88-17.93 c-0.72-0.15-1.43-0.36-2.12-0.64c-3.05-1.25-10.62-5.15-11.74-13.26"/>
      <linearGradient id="SVGID_8_" gradientUnits="userSpaceOnUse" x1="124.5549" y1="106.9343" x2="162.9717" y2="129.1143">
        <stop offset="0" style="stop-color:#947400"/>
        <stop offset="0.0845" style="stop-color:#A38312;stop-opacity:0.9998"/>
        <stop offset="0.2615" style="stop-color:#BD9F33;stop-opacity:0.9994"/>
        <stop offset="0.4318" style="stop-color:#D1B34A;stop-opacity:0.9991"/>
        <stop offset="0.5909" style="stop-color:#DCBF58;stop-opacity:0.9987"/>
        <stop offset="0.7275" style="stop-color:#E0C35D;stop-opacity:0.9985"/>
        <stop offset="0.7702" style="stop-color:#E3C867;stop-opacity:0.9204"/>
        <stop offset="0.8433" style="stop-color:#EAD783;stop-opacity:0.7866"/>
        <stop offset="0.9373" style="stop-color:#F6EEAF;stop-opacity:0.6147"/>
        <stop offset="1" style="stop-color:#FFFFD0;stop-opacity:0.5"/>
      </linearGradient>
      <path class="st10" d="M146.12,99.87c3.81,1.92,7.39,4.31,10.67,7.08c1.62,1.41,3.15,2.93,4.49,4.62c1.35,1.66,2.48,3.65,2.9,5.82 c0.46,2.17,0.27,4.41-0.23,6.52c-0.5,2.12-1.28,4.14-2.15,6.11c-1.78,3.92-3.92,7.63-5.98,11.35l-1.36,2.46l0.44-2.81 c0.59-3.8-0.85-7.95-3.66-10.71c-2.73-2.91-6.5-4.62-10.31-5.86l-2.93-0.78c-0.97-0.25-2.03-0.49-2.96-0.93 c-1.89-0.83-3.67-1.88-5.29-3.15c-3.21-2.53-5.7-6.21-6.11-10.3c0.32,2.01,1.1,3.93,2.22,5.6c1.12,1.67,2.56,3.13,4.18,4.32 c1.61,1.2,3.38,2.2,5.24,2.96c0.92,0.41,1.87,0.6,2.87,0.83l2.99,0.72c3.92,1.15,7.83,2.91,10.75,5.95 c2.99,2.94,4.62,7.28,3.98,11.55l-0.92-0.35c2.07-3.74,4.23-7.41,6.01-11.25c0.87-1.92,1.64-3.9,2.14-5.93 c0.49-2.03,0.68-4.13,0.31-6.17c-0.36-2.05-1.35-3.9-2.64-5.58c-1.28-1.68-2.75-3.21-4.32-4.64 C153.33,104.45,149.82,101.99,146.12,99.87z"/>
    </g>
    <g>
      <linearGradient id="SVGID_9_" gradientUnits="userSpaceOnUse" x1="109.0807" y1="119.0693" x2="125.3189" y2="135.3074">
        <stop offset="0" style="stop-color:#DFC06B"/>
        <stop offset="0.2016" style="stop-color:#E0C16E;stop-opacity:0.8992"/>
        <stop offset="0.3651" style="stop-color:#E2C678;stop-opacity:0.8175"/>
        <stop offset="0.5151" style="stop-color:#E6CD89;stop-opacity:0.7424"/>
        <stop offset="0.6573" style="stop-color:#EBD7A1;stop-opacity:0.6714"/>
        <stop offset="0.7937" style="stop-color:#F1E4C0;stop-opacity:0.6031"/>
        <stop offset="0.9242" style="stop-color:#FAF4E6;stop-opacity:0.5379"/>
        <stop offset="1" style="stop-color:#FFFFFF;stop-opacity:0.5"/>
      </linearGradient>
      <path class="st11" d="M120.67,107.56c0,0-1.33,4.42,3.34,8.84c4.66,4.42,6.09,25.13-13.55,27.15c0,0,6.73-5.65,0.74-13.75 c0,0-4.02-5.18-2.26-10.59"/>
      <linearGradient id="SVGID_10_" gradientUnits="userSpaceOnUse" x1="108.2547" y1="114.3126" x2="122.7121" y2="139.3537">
        <stop offset="0" style="stop-color:#947400"/>
        <stop offset="0.0845" style="stop-color:#A38312;stop-opacity:0.9998"/>
        <stop offset="0.2615" style="stop-color:#BD9F33;stop-opacity:0.9994"/>
        <stop offset="0.4318" style="stop-color:#D1B34A;stop-opacity:0.9991"/>
        <stop offset="0.5909" style="stop-color:#DCBF58;stop-opacity:0.9987"/>
        <stop offset="0.7275" style="stop-color:#E0C35D;stop-opacity:0.9985"/>
        <stop offset="0.7702" style="stop-color:#E3C867;stop-opacity:0.9204"/>
        <stop offset="0.8433" style="stop-color:#EAD783;stop-opacity:0.7866"/>
        <stop offset="0.9373" style="stop-color:#F6EEAF;stop-opacity:0.6147"/>
        <stop offset="1" style="stop-color:#FFFFD0;stop-opacity:0.5"/>
      </linearGradient>
      <path class="st12" d="M120.67,107.56c-0.36,1.93,0.12,3.92,1.04,5.59c0.46,0.84,1.07,1.6,1.71,2.31c0.67,0.65,1.45,1.37,1.94,2.26 c1.01,1.74,1.54,3.7,1.81,5.67c0.27,1.97,0.26,3.98-0.07,5.95c-0.61,3.92-2.48,7.77-5.58,10.38c-3.08,2.65-7.09,3.88-11.01,4.28 l-1.35,0.14l1.01-0.93c1.52-1.39,2.64-3.36,2.99-5.42c0.35-2.08-0.14-4.26-1.16-6.15c-0.51-0.94-1.17-1.81-1.75-2.79 c-0.56-0.97-1-2.01-1.32-3.08c-0.66-2.13-0.74-4.47,0-6.56c-0.59,2.13-0.41,4.4,0.34,6.44c0.36,1.03,0.86,2,1.42,2.93 c0.56,0.91,1.27,1.78,1.84,2.76c1.13,1.94,1.74,4.27,1.43,6.57c-0.35,2.3-1.52,4.38-3.22,5.98l-0.34-0.79 c3.8-0.42,7.57-1.67,10.47-4.14c2.93-2.41,4.74-6.02,5.37-9.77c0.32-1.88,0.38-3.81,0.19-5.72c-0.21-1.9-0.66-3.8-1.57-5.47 c-0.44-0.85-1.1-1.48-1.79-2.23c-0.63-0.77-1.22-1.57-1.65-2.47C120.55,111.54,120.17,109.47,120.67,107.56z"/>
    </g>
    <path class="st13" d="M104.15,15.25c0,0,11.57,2.01,15.59,7.54c3.43,4.72,9.8,18.98,11.59,23.05c0.32,0.72,0.49,1.49,0.51,2.27 l0.19,6.65c0.02,0.64,0.25,1.25,0.65,1.75c1.78,2.16,7.19,8.35,14.23,12.84c0.55,0.35,0.96,0.92,1.02,1.58 c0.16,1.75-1.29,2.97-4.59,4.16c-0.43,0.16-0.73,0.56-0.73,1.02l0,1.75c0,0,0,1.32,2.48,3.15c0.45,0.33,0.75,0.85,0.78,1.4 c0.13,3.06-4.77,5.51-4.77,5.51s4.3-0.72,5.03,1.78c0.25,0.85-0.13,1.77-0.85,2.27c-0.91,0.64-1.43,1.26-1.7,1.81 c-0.41,0.83-0.25,1.83,0.34,2.54c1.73,2.11,9.05,12.86-22.08,12.73c-1.08,0-2.16,0.24-3.1,0.77c-1.3,0.72-3.12,2.02-4.8,4.25 c-3.02,4.02-15.09,19.11-15.09,28.67c0,0-16.33-7-25.15-18.46c0,0-14.52-17.52-15.57-35.22c0,0-4.09-23.35,5.41-37.34 c0,0,8.97-20.71,21.64-26.39C85.19,25.34,98.17,15.72,104.15,15.25z"/>
    <g>
      <linearGradient id="SVGID_11_" gradientUnits="userSpaceOnUse" x1="78.1493" y1="78.3779" x2="119.2001" y2="78.3779">
        <stop offset="0" style="stop-color:#E0C35D"/>
        <stop offset="0.6247" style="stop-color:#E0C35D;stop-opacity:0.9987"/>
        <stop offset="0.7275" style="stop-color:#E0C35D;stop-opacity:0.9985"/>
        <stop offset="0.8091" style="stop-color:#E0C45F;stop-opacity:0.7893"/>
        <stop offset="0.8517" style="stop-color:#E2C767;stop-opacity:0.6801"/>
        <stop offset="0.8853" style="stop-color:#E5CC75;stop-opacity:0.594"/>
        <stop offset="0.9142" style="stop-color:#E8D388;stop-opacity:0.52"/>
        <stop offset="0.9401" style="stop-color:#EDDCA0;stop-opacity:0.4536"/>
        <stop offset="0.9638" style="stop-color:#F3E7BF;stop-opacity:0.3929"/>
        <stop offset="0.9854" style="stop-color:#FAF4E2;stop-opacity:0.3375"/>
        <stop offset="1" style="stop-color:#FFFFFF;stop-opacity:0.3"/>
      </linearGradient>
      <path class="st14" d="M118.83,27.73c-0.16,2.62-1.42,5.04-2.94,7.14c-1.54,2.12-3.39,3.98-5.34,5.71 c-3.95,3.42-8.32,6.32-12.86,8.89c-1.11,0.63-2.12,1.42-2.9,2.4c-0.78,0.98-1.36,2.13-1.65,3.35c-0.61,2.44,0.08,5.11,1.63,7.07 c3.34,3.96,6.37,8.4,8.05,13.4c0.84,2.5,1.31,5.13,1.31,7.78c0.03,2.65-0.52,5.28-1.43,7.76c-1.89,4.95-5.36,9.14-9.4,12.45 c-1.01,0.83-2.06,1.62-3.15,2.35c-1.09,0.72-2.14,1.46-3.12,2.3c-1.97,1.66-3.71,3.61-5.07,5.8c-2.75,4.38-3.84,9.75-3.24,14.91 c-0.72-5.14,0.24-10.58,2.93-15.1c1.35-2.25,3.09-4.26,5.08-5.97c0.98-0.86,2.06-1.64,3.13-2.37c1.06-0.74,2.09-1.52,3.08-2.36 c3.93-3.33,7.33-7.42,9.13-12.24c0.87-2.4,1.39-4.95,1.36-7.52c-0.01-2.56-0.49-5.11-1.31-7.54c-0.81-2.44-1.96-4.76-3.3-6.96 c-1.33-2.22-2.94-4.23-4.58-6.27c-1.66-2.12-2.39-5-1.72-7.64c0.32-1.31,0.94-2.54,1.79-3.59c0.86-1.04,1.94-1.87,3.11-2.51 c4.55-2.49,8.93-5.33,12.9-8.67c1.97-1.68,3.86-3.48,5.43-5.54C117.3,32.71,118.6,30.34,118.83,27.73z"/>
    </g>
    <g>
      <linearGradient id="SVGID_12_" gradientUnits="userSpaceOnUse" x1="86.5487" y1="82.0144" x2="120.412" y2="82.0144">
        <stop offset="0" style="stop-color:#E0C35D"/>
        <stop offset="0.6247" style="stop-color:#E0C35D;stop-opacity:0.9987"/>
        <stop offset="0.7275" style="stop-color:#E0C35D;stop-opacity:0.9985"/>
        <stop offset="0.8091" style="stop-color:#E0C45F;stop-opacity:0.7893"/>
        <stop offset="0.8517" style="stop-color:#E2C767;stop-opacity:0.6801"/>
        <stop offset="0.8853" style="stop-color:#E5CC75;stop-opacity:0.594"/>
        <stop offset="0.9142" style="stop-color:#E8D388;stop-opacity:0.52"/>
        <stop offset="0.9401" style="stop-color:#EDDCA0;stop-opacity:0.4536"/>
        <stop offset="0.9638" style="stop-color:#F3E7BF;stop-opacity:0.3929"/>
        <stop offset="0.9854" style="stop-color:#FAF4E2;stop-opacity:0.3375"/>
        <stop offset="1" style="stop-color:#FFFFFF;stop-opacity:0.3"/>
      </linearGradient>
      <path class="st15" d="M120.04,29.73c-0.94,4.96-3.46,9.56-6.82,13.33c-0.84,0.95-1.76,1.82-2.71,2.66l-1.45,1.21 c-0.45,0.41-0.9,0.86-1.32,1.32c-1.69,1.83-3.1,3.93-4.05,6.22c-0.94,2.29-1.26,4.82-0.76,7.22c0.18,0.59,0.26,1.2,0.51,1.76 l0.76,1.68l1.01,1.54c0.32,0.51,0.78,1,1.13,1.53c2.91,4.15,5.01,8.99,5.39,14.12c0.42,5.13-1.42,10.34-4.74,14.21 c-1.67,1.91-3.46,3.69-5.23,5.48c-1.78,1.79-3.59,3.54-5.42,5.27c-0.89,0.87-1.87,1.73-2.8,2.54c-0.9,0.85-1.71,1.8-2.42,2.82 c-1.42,2.04-2.47,4.35-3.13,6.75c-0.68,2.41-0.96,4.92-0.96,7.43c-0.03,2.52,0.39,5.01,0.86,7.48c-0.53-2.46-1.01-4.95-1.04-7.48 c-0.06-2.52,0.16-5.07,0.79-7.52c0.64-2.45,1.67-4.82,3.1-6.93c0.72-1.05,1.54-2.04,2.45-2.93c0.95-0.86,1.86-1.68,2.76-2.58 c3.57-3.54,7.21-7.04,10.53-10.79c3.2-3.77,4.94-8.78,4.52-13.72c-0.35-4.95-2.37-9.7-5.2-13.78c-0.35-0.52-0.76-0.96-1.11-1.52 l-1.06-1.62c-0.28-0.58-0.53-1.18-0.79-1.77c-0.25-0.59-0.35-1.24-0.53-1.86c-0.53-2.54-0.15-5.22,0.86-7.57 c1.01-2.36,2.49-4.48,4.23-6.32c0.43-0.47,0.89-0.91,1.37-1.33l1.46-1.19c0.95-0.81,1.87-1.67,2.71-2.59 C116.36,39.16,118.98,34.66,120.04,29.73z"/>
    </g>
    <path d="M129.04,52.72c0,0-4.53-5.53-12.07,3.52C116.97,56.24,125.52,44.67,129.04,52.72z"/>
    <g>
      <path d="M128.83,58c0.86,0.56,1.64,1.29,2.15,2.25c0.25,0.47,0.44,1.02,0.41,1.63c-0.03,0.62-0.43,1.22-0.95,1.52 c-0.25,0.16-0.55,0.26-0.85,0.3c-0.28,0.04-0.55,0.05-0.81,0.04c-0.53-0.02-1.05-0.06-1.56-0.17c-1.02-0.19-2.02-0.56-2.88-1.13 c0.98,0.3,1.97,0.45,2.96,0.55c0.5,0.03,0.99,0.07,1.48,0.04c0.24-0.01,0.49-0.02,0.71-0.06c0.21-0.03,0.39-0.11,0.57-0.22 c0.77-0.4,0.78-1.38,0.4-2.27C130.09,59.6,129.5,58.76,128.83,58z"/>
    </g>
    <path d="M130.96,62.62c1.62-0.23,1.81-1.22,1.81-1.22c-0.1,2.78-4.51,2.29-4.51,2.29"/>
    <circle class="st16" cx="125.27" cy="80" r="68.71"/>
    <line class="st16" x1="199.31" y1="80.64" x2="229.18" y2="80.73"/>
    <line class="st16" x1="21.17" y1="80.64" x2="51.03" y2="80.73"/>
    <g>
      <g>
        <path d="M252.05,64.84c0.45,0,0.93,0.03,1.45,0.08c0.52,0.06,1.02,0.13,1.51,0.23c0.49,0.1,0.94,0.2,1.34,0.29 c0.41,0.1,0.72,0.2,0.95,0.31v4.66h-0.38c0-1.34-0.46-2.4-1.39-3.17c-0.92-0.77-2.04-1.15-3.36-1.15c-1.54,0-2.79,0.48-3.74,1.45 c-0.95,0.97-1.43,2.09-1.43,3.38c0,0.53,0.12,1.15,0.36,1.87c0.24,0.71,0.68,1.38,1.32,1.99l8.27,7.64 c0.84,0.78,1.4,1.62,1.68,2.52c0.28,0.9,0.42,1.76,0.42,2.6c0,2.32-0.71,4.21-2.12,5.67c-1.41,1.46-3.33,2.18-5.73,2.18 c-0.67,0-1.46-0.07-2.37-0.21c-0.91-0.14-1.79-0.38-2.65-0.73c-0.85-0.35-1.56-0.8-2.12-1.37c-0.08-0.45-0.13-1.01-0.13-1.68 c0-0.67,0.06-1.38,0.17-2.12c0.11-0.74,0.27-1.42,0.46-2.04h0.38c-0.14,1.43,0.04,2.67,0.55,3.74c0.5,1.06,1.24,1.87,2.2,2.41 c0.97,0.55,2.06,0.79,3.3,0.74c1.54-0.08,2.86-0.62,3.97-1.62c1.11-0.99,1.66-2.33,1.66-4.01c0-0.81-0.14-1.55-0.42-2.21 c-0.28-0.66-0.69-1.22-1.22-1.7l-8.06-7.48c-0.84-0.78-1.43-1.64-1.76-2.58c-0.34-0.94-0.5-1.81-0.5-2.63 c0-1.18,0.28-2.31,0.84-3.4c0.56-1.09,1.39-1.98,2.5-2.67C249.1,65.18,250.45,64.84,252.05,64.84z M257.3,65.26v0.88h-3.19v-0.88 H257.3z"/>
        <path d="M266.83,72.32h-0.08c-0.03-0.64-0.28-1.18-0.76-1.62c-0.48-0.43-1.05-0.65-1.72-0.65h-0.5v-0.42h3.07V72.32z M266.83,92.14v2.69h-3.07v-0.42h0.5c0.67,0,1.25-0.22,1.72-0.67c0.48-0.45,0.73-0.98,0.76-1.6H266.83z M269.44,69.63v25.2h-2.69 v-25.2H269.44z M269.31,72.32v-2.69h3.07v0.42c-0.31,0-0.48,0-0.5,0c-0.67,0-1.25,0.22-1.72,0.65c-0.48,0.43-0.71,0.97-0.71,1.62 H269.31z M269.31,92.14h0.13c0,0.62,0.24,1.15,0.71,1.6c0.48,0.45,1.06,0.67,1.76,0.67h0.46v0.42h-3.07V92.14z M284.47,69.92 l-11.59,12.39h-1.97l10.54-12.39H284.47z M273.26,80.76l10.96,11.93c0.48,0.56,0.98,0.98,1.51,1.26 c0.53,0.28,1.25,0.43,2.14,0.46v0.42h-1.55c-0.34,0-0.75-0.02-1.24-0.06c-0.49-0.04-1.02-0.14-1.6-0.29 c-0.57-0.15-1.15-0.39-1.72-0.71s-1.11-0.76-1.62-1.32c-0.87-0.98-1.65-1.85-2.35-2.63c-0.7-0.77-1.45-1.58-2.25-2.44 c-0.8-0.85-1.55-1.67-2.25-2.44c-0.7-0.77-1.5-1.64-2.39-2.63L273.26,80.76z M287.2,69.63v0.42h-0.17 c-0.87,0-1.67,0.14-2.42,0.42c-0.74,0.28-1.35,0.7-1.83,1.26l-2.86-0.04c0.31-0.39,0.36-0.76,0.15-1.11s-0.57-0.52-1.07-0.52 h-0.38v-0.42h8.4H287.2z"/>
        <path d="M293.54,72.32h-0.13c-0.03-0.64-0.31-1.18-0.86-1.62c-0.55-0.43-1.21-0.65-1.99-0.65c-0.03,0-0.22,0-0.59,0v-0.42h3.57 V72.32z M293.54,92.14v2.69h-3.57v-0.42h0.59c0.78,0,1.45-0.22,1.99-0.67c0.55-0.45,0.83-0.98,0.86-1.6H293.54z M296.07,69.63 v25.2h-2.65v-25.2H296.07z M295.94,72.32v-2.69h3.57l-0.04,0.42h-0.55c-0.78,0-1.45,0.22-2,0.65c-0.55,0.43-0.83,0.97-0.86,1.62 H295.94z M295.94,92.14h0.13c0.03,0.62,0.31,1.15,0.86,1.6c0.55,0.45,1.21,0.67,2,0.67h0.55l0.04,0.42h-3.57V92.14z"/>
        <path d="M306.4,92.23v2.6h-3.15v-0.42h0.71c0.64,0,1.19-0.21,1.64-0.63c0.45-0.42,0.67-0.94,0.67-1.55H306.4z M306.31,69 l1.81,2.35l0.04,23.48h-1.89V74.25c0-1.43-0.13-3.18-0.38-5.25H306.31z M306.31,69l23.27,21.92l0.42,4.49l-23.27-22.05L306.31,69 z M308.16,92.23c0,0.62,0.23,1.13,0.69,1.55c0.46,0.42,1,0.63,1.62,0.63h0.71v0.42h-3.15v-2.6H308.16z M328.15,72.23 c-0.03-0.62-0.27-1.13-0.71-1.55c-0.45-0.42-0.99-0.63-1.64-0.63h-0.71v-0.42h3.15v2.6H328.15z M330,69.63v20.41 c0,0.9,0.03,1.76,0.08,2.58c0.06,0.83,0.15,1.76,0.29,2.79H330l-1.85-2.23V69.63H330z M329.88,72.23v-2.6h3.15v0.42h-0.71 c-0.62,0-1.16,0.21-1.62,0.63S330,71.62,330,72.23H329.88z"/>
        <path d="M345.04,64.84c0.45,0,0.93,0.03,1.45,0.08c0.52,0.06,1.02,0.13,1.51,0.23c0.49,0.1,0.94,0.2,1.34,0.29 c0.41,0.1,0.72,0.2,0.95,0.31v4.66h-0.38c0-1.34-0.46-2.4-1.39-3.17c-0.92-0.77-2.04-1.15-3.36-1.15c-1.54,0-2.79,0.48-3.74,1.45 c-0.95,0.97-1.43,2.09-1.43,3.38c0,0.53,0.12,1.15,0.36,1.87c0.24,0.71,0.68,1.38,1.32,1.99l8.27,7.64 c0.84,0.78,1.4,1.62,1.68,2.52c0.28,0.9,0.42,1.76,0.42,2.6c0,2.32-0.71,4.21-2.12,5.67c-1.41,1.46-3.33,2.18-5.73,2.18 c-0.67,0-1.46-0.07-2.37-0.21c-0.91-0.14-1.79-0.38-2.65-0.73c-0.85-0.35-1.56-0.8-2.12-1.37c-0.08-0.45-0.13-1.01-0.13-1.68 c0-0.67,0.06-1.38,0.17-2.12c0.11-0.74,0.27-1.42,0.46-2.04h0.38c-0.14,1.43,0.04,2.67,0.55,3.74c0.5,1.06,1.24,1.87,2.21,2.41 c0.97,0.55,2.06,0.79,3.3,0.74c1.54-0.08,2.86-0.62,3.97-1.62c1.11-0.99,1.66-2.33,1.66-4.01c0-0.81-0.14-1.55-0.42-2.21 c-0.28-0.66-0.69-1.22-1.22-1.7l-8.06-7.48c-0.84-0.78-1.43-1.64-1.76-2.58c-0.34-0.94-0.5-1.81-0.5-2.63 c0-1.18,0.28-2.31,0.84-3.4c0.56-1.09,1.39-1.98,2.5-2.67C342.09,65.18,343.44,64.84,345.04,64.84z M350.29,65.26v0.88h-3.19 v-0.88H350.29z"/>
        <path d="M359.82,72.32h-0.13c-0.03-0.64-0.27-1.18-0.74-1.62c-0.46-0.43-1.03-0.65-1.7-0.65h-0.5v-0.42h3.07V72.32z M359.82,92.14v2.69h-3.07v-0.42h0.5c0.67,0,1.24-0.22,1.7-0.67c0.46-0.45,0.71-0.98,0.74-1.6H359.82z M362.38,69.63v25.2h-2.69 v-25.2H362.38z M378.3,81.77v1.26h-16.38v-1.26H378.3z M362.26,72.32v-2.69h3.07v0.42h-0.5c-0.67,0-1.25,0.22-1.72,0.65 c-0.48,0.43-0.71,0.97-0.71,1.62H362.26z M362.26,92.14h0.13c0,0.62,0.24,1.15,0.71,1.6c0.48,0.45,1.05,0.67,1.72,0.67h0.5v0.42 h-3.07V92.14z M378.01,72.32h-0.13c-0.03-0.64-0.27-1.18-0.73-1.62c-0.46-0.43-1.03-0.65-1.7-0.65h-0.5v-0.42h3.07V72.32z M378.01,92.14v2.69h-3.07v-0.42h0.5c0.67,0,1.24-0.22,1.7-0.67c0.46-0.45,0.71-0.98,0.73-1.6H378.01z M380.57,69.63v25.2h-2.69 v-25.2H380.57z M380.44,72.32v-2.69h3.07v0.42H383c-0.67,0-1.24,0.22-1.7,0.65c-0.46,0.43-0.71,0.97-0.74,1.62H380.44z M380.44,92.14h0.13c0.03,0.62,0.27,1.15,0.74,1.6c0.46,0.45,1.03,0.67,1.7,0.67h0.5v0.42h-3.07V92.14z"/>
        <path d="M391.66,72.32h-0.13c-0.03-0.64-0.31-1.18-0.86-1.62c-0.55-0.43-1.21-0.65-1.99-0.65c-0.03,0-0.22,0-0.59,0v-0.42h3.57 V72.32z M391.66,92.14v2.69h-3.57v-0.42h0.59c0.78,0,1.45-0.22,1.99-0.67c0.55-0.45,0.83-0.98,0.86-1.6H391.66z M394.18,69.63 v25.2h-2.65v-25.2H394.18z M394.05,72.32v-2.69h3.57l-0.04,0.42h-0.55c-0.78,0-1.45,0.22-2,0.65c-0.55,0.43-0.83,0.97-0.86,1.62 H394.05z M394.05,92.14h0.13c0.03,0.62,0.31,1.15,0.86,1.6c0.55,0.45,1.21,0.67,2,0.67h0.55l0.04,0.42h-3.57V92.14z"/>
        <path d="M404.51,92.23v2.6h-3.15v-0.42h0.71c0.64,0,1.19-0.21,1.64-0.63c0.45-0.42,0.67-0.94,0.67-1.55H404.51z M404.42,69 l1.81,2.35l0.04,23.48h-1.89V74.25c0-1.43-0.13-3.18-0.38-5.25H404.42z M404.42,69l23.27,21.92l0.42,4.49l-23.27-22.05L404.42,69 z M406.27,92.23c0,0.62,0.23,1.13,0.69,1.55c0.46,0.42,1,0.63,1.62,0.63h0.71v0.42h-3.15v-2.6H406.27z M426.26,72.23 c-0.03-0.62-0.27-1.13-0.71-1.55c-0.45-0.42-0.99-0.63-1.64-0.63h-0.71v-0.42h3.15v2.6H426.26z M428.11,69.63v20.41 c0,0.9,0.03,1.76,0.08,2.58c0.06,0.83,0.15,1.76,0.29,2.79h-0.38l-1.85-2.23V69.63H428.11z M427.99,72.23v-2.6h3.15v0.42h-0.71 c-0.62,0-1.16,0.21-1.62,0.63s-0.69,0.94-0.69,1.55H427.99z"/>
        <path d="M438.02,72.27h-0.08c-0.03-0.64-0.27-1.18-0.71-1.6c-0.45-0.42-1.02-0.63-1.72-0.63h-0.59v-0.42h3.65L438.02,72.27z M438.02,92.14l0.55,2.69h-3.65v-0.42h0.59c0.7,0,1.27-0.22,1.72-0.67c0.45-0.45,0.69-0.98,0.71-1.6H438.02z M440.63,69.63v25.2 h-2.69v-25.2H440.63z M451.88,69.63v1.3h-11.34v-1.3H451.88z M449.95,81.6v1.26h-9.41V81.6H449.95z M451.93,93.53l-0.08,1.3 h-11.3v-1.3H451.93z M454.28,88.82l-2.31,6.01h-6.38l1.43-1.3c1.4,0,2.53-0.2,3.38-0.61c0.85-0.41,1.55-0.97,2.08-1.68 c0.53-0.71,0.99-1.52,1.39-2.42H454.28z M451.88,68.96v1.09l-4.79-0.42c0.87,0,1.79-0.08,2.77-0.23 C450.85,69.24,451.52,69.1,451.88,68.96z M449.95,79.29v2.39h-2.18V81.6c0.59,0,1.02-0.17,1.3-0.52 c0.28-0.35,0.42-0.76,0.42-1.24v-0.55H449.95z M449.95,82.77v2.39h-0.46v-0.55c0-0.48-0.14-0.89-0.42-1.24 c-0.28-0.35-0.71-0.53-1.3-0.53v-0.08H449.95z M451.88,70.81v2.9h-0.46v-0.63c0-0.59-0.19-1.09-0.57-1.51s-0.89-0.63-1.53-0.63 v-0.13H451.88z"/>
      </g>
    </g>
  </g>
</svg>